<mxfile host="app.diagrams.net" modified="2021-04-12T17:20:06.501Z" agent="5.0 (Windows)" etag="oagaw_HZ1hKpLslf33Fj" version="14.5.10" type="github" pages="4">
  <diagram id="2ZicLahAkMwy1uGJY4i7" name="Architecture">
    <mxGraphModel dx="1422" dy="867" grid="1" gridSize="10" guides="1" tooltips="1" connect="1" arrows="1" fold="1" page="1" pageScale="1" pageWidth="1100" pageHeight="850" math="0" shadow="0">
      <root>
        <mxCell id="esgHbYrnC5C50tomHgbE-0" />
        <mxCell id="esgHbYrnC5C50tomHgbE-1" parent="esgHbYrnC5C50tomHgbE-0" />
        <mxCell id="GKuD-xg1_WZd025ETePE-2" style="edgeStyle=orthogonalEdgeStyle;rounded=0;orthogonalLoop=1;jettySize=auto;html=1;exitX=0;exitY=0.5;exitDx=0;exitDy=0;entryX=1;entryY=0.5;entryDx=0;entryDy=0;" parent="esgHbYrnC5C50tomHgbE-1" source="CmkUiu_usdwQD7UQJuM9-8" target="GKuD-xg1_WZd025ETePE-0" edge="1">
          <mxGeometry relative="1" as="geometry" />
        </mxCell>
        <mxCell id="CmkUiu_usdwQD7UQJuM9-8" value="&lt;div&gt;Email&lt;/div&gt;&lt;div&gt;Service&lt;/div&gt;" style="whiteSpace=wrap;html=1;rounded=1;" parent="esgHbYrnC5C50tomHgbE-1" vertex="1">
          <mxGeometry x="300" y="250" width="120" height="60" as="geometry" />
        </mxCell>
        <mxCell id="GKuD-xg1_WZd025ETePE-0" value="Enterprise Exchange" style="whiteSpace=wrap;html=1;rounded=1;" parent="esgHbYrnC5C50tomHgbE-1" vertex="1">
          <mxGeometry x="100" y="250" width="120" height="60" as="geometry" />
        </mxCell>
      </root>
    </mxGraphModel>
  </diagram>
  <diagram id="8zZ_oITlpo-OSzF2_ptK" name="Sequence">
    <mxGraphModel dx="1422" dy="867" grid="1" gridSize="10" guides="1" tooltips="1" connect="1" arrows="1" fold="1" page="1" pageScale="1" pageWidth="850" pageHeight="1100" math="0" shadow="0">
      <root>
        <mxCell id="VXMPrNVo3MlUeENppWDQ-0" />
        <mxCell id="VXMPrNVo3MlUeENppWDQ-1" parent="VXMPrNVo3MlUeENppWDQ-0" />
        <mxCell id="jIKINKb2FytGQsQlVY2D-0" value="es:EmailService" style="shape=umlLifeline;perimeter=lifelinePerimeter;whiteSpace=wrap;html=1;container=1;collapsible=0;recursiveResize=0;outlineConnect=0;size=40;" vertex="1" parent="VXMPrNVo3MlUeENppWDQ-1">
          <mxGeometry x="235" y="30" width="195" height="390" as="geometry" />
        </mxCell>
        <mxCell id="jIKINKb2FytGQsQlVY2D-1" value="" style="html=1;points=[];perimeter=orthogonalPerimeter;" vertex="1" parent="jIKINKb2FytGQsQlVY2D-0">
          <mxGeometry x="90" y="100" width="10" height="280" as="geometry" />
        </mxCell>
        <mxCell id="jIKINKb2FytGQsQlVY2D-27" value="formatObj(Email:email)" style="html=1;verticalAlign=bottom;endArrow=block;exitX=1;exitY=0.104;exitDx=0;exitDy=0;exitPerimeter=0;" edge="1" parent="jIKINKb2FytGQsQlVY2D-0" source="jIKINKb2FytGQsQlVY2D-1" target="jIKINKb2FytGQsQlVY2D-1">
          <mxGeometry width="80" relative="1" as="geometry">
            <mxPoint x="105.00142857142845" y="131.16000000000003" as="sourcePoint" />
            <mxPoint x="330.93000000000006" y="129.99999999999994" as="targetPoint" />
            <Array as="points">
              <mxPoint x="135" y="129" />
              <mxPoint x="135" y="190" />
            </Array>
          </mxGeometry>
        </mxCell>
        <mxCell id="jIKINKb2FytGQsQlVY2D-2" value="ns:NotificationService" style="shape=umlLifeline;perimeter=lifelinePerimeter;whiteSpace=wrap;html=1;container=1;collapsible=0;recursiveResize=0;outlineConnect=0;" vertex="1" parent="VXMPrNVo3MlUeENppWDQ-1">
          <mxGeometry x="30" y="30" width="120" height="380" as="geometry" />
        </mxCell>
        <mxCell id="jIKINKb2FytGQsQlVY2D-3" value="sendEmail(Email:email)" style="html=1;verticalAlign=bottom;endArrow=block;entryX=0;entryY=0.002;entryDx=0;entryDy=0;entryPerimeter=0;" edge="1" parent="VXMPrNVo3MlUeENppWDQ-1" target="jIKINKb2FytGQsQlVY2D-1">
          <mxGeometry width="80" relative="1" as="geometry">
            <mxPoint x="99.07142857142844" y="131.72000000000003" as="sourcePoint" />
            <mxPoint x="670" y="360" as="targetPoint" />
            <Array as="points" />
          </mxGeometry>
        </mxCell>
        <mxCell id="jIKINKb2FytGQsQlVY2D-25" value="ee: Enterprise Exchange" style="shape=umlLifeline;perimeter=lifelinePerimeter;whiteSpace=wrap;html=1;container=1;collapsible=0;recursiveResize=0;outlineConnect=0;size=40;" vertex="1" parent="VXMPrNVo3MlUeENppWDQ-1">
          <mxGeometry x="490" y="30" width="220" height="410" as="geometry" />
        </mxCell>
        <mxCell id="jIKINKb2FytGQsQlVY2D-26" value="" style="html=1;points=[];perimeter=orthogonalPerimeter;" vertex="1" parent="jIKINKb2FytGQsQlVY2D-25">
          <mxGeometry x="90" y="100" width="10" height="300" as="geometry" />
        </mxCell>
        <mxCell id="jIKINKb2FytGQsQlVY2D-28" value="sendEmail(formattedEmail)" style="html=1;verticalAlign=bottom;endArrow=block;exitX=0.5;exitY=0.433;exitDx=0;exitDy=0;exitPerimeter=0;" edge="1" parent="VXMPrNVo3MlUeENppWDQ-1" source="jIKINKb2FytGQsQlVY2D-1" target="jIKINKb2FytGQsQlVY2D-26">
          <mxGeometry x="0.1508" width="80" relative="1" as="geometry">
            <mxPoint x="340.00142857142845" y="251.16000000000003" as="sourcePoint" />
            <mxPoint x="565.9300000000001" y="249.99999999999994" as="targetPoint" />
            <Array as="points" />
            <mxPoint as="offset" />
          </mxGeometry>
        </mxCell>
        <mxCell id="jIKINKb2FytGQsQlVY2D-29" value="return Succes" style="html=1;verticalAlign=bottom;endArrow=block;" edge="1" parent="VXMPrNVo3MlUeENppWDQ-1" target="jIKINKb2FytGQsQlVY2D-0">
          <mxGeometry x="0.1508" width="80" relative="1" as="geometry">
            <mxPoint x="580" y="320" as="sourcePoint" />
            <mxPoint x="610" y="299.99999999999994" as="targetPoint" />
            <Array as="points">
              <mxPoint x="510" y="320" />
            </Array>
            <mxPoint as="offset" />
          </mxGeometry>
        </mxCell>
        <mxCell id="jIKINKb2FytGQsQlVY2D-31" value="return Succes" style="html=1;verticalAlign=bottom;endArrow=block;" edge="1" parent="VXMPrNVo3MlUeENppWDQ-1">
          <mxGeometry x="0.1508" width="80" relative="1" as="geometry">
            <mxPoint x="328" y="340" as="sourcePoint" />
            <mxPoint x="90" y="340" as="targetPoint" />
            <Array as="points">
              <mxPoint x="258" y="340" />
            </Array>
            <mxPoint as="offset" />
          </mxGeometry>
        </mxCell>
      </root>
    </mxGraphModel>
  </diagram>
  <diagram id="oorJlYaGRG9ph4syagww" name="SvcV-2">
    <mxGraphModel dx="1422" dy="867" grid="1" gridSize="10" guides="1" tooltips="1" connect="1" arrows="1" fold="1" page="1" pageScale="1" pageWidth="850" pageHeight="1100" math="0" shadow="0">
      <root>
        <mxCell id="H_-ThdgvMd2uYaJ2s5YI-0" />
        <mxCell id="H_-ThdgvMd2uYaJ2s5YI-1" parent="H_-ThdgvMd2uYaJ2s5YI-0" />
        <mxCell id="n474g0mYbvAmzKs8n7oU-1" style="edgeStyle=orthogonalEdgeStyle;rounded=0;orthogonalLoop=1;jettySize=auto;html=1;exitX=0.5;exitY=1;exitDx=0;exitDy=0;entryX=0.5;entryY=0;entryDx=0;entryDy=0;endArrow=none;endFill=0;" edge="1" parent="H_-ThdgvMd2uYaJ2s5YI-1" source="n474g0mYbvAmzKs8n7oU-4" target="n474g0mYbvAmzKs8n7oU-12">
          <mxGeometry relative="1" as="geometry" />
        </mxCell>
        <mxCell id="n474g0mYbvAmzKs8n7oU-4" value="&lt;p style=&quot;margin: 0px ; margin-top: 4px ; text-align: center&quot;&gt;&lt;i&gt;&amp;lt;&amp;lt;ServiceSpecification&amp;gt;&amp;gt;&lt;/i&gt;&lt;br&gt;&lt;b&gt;EmailService&lt;/b&gt;&lt;/p&gt;&lt;hr size=&quot;1&quot;&gt;&lt;p style=&quot;margin: 0px ; margin-left: 4px&quot;&gt;&lt;br&gt;&lt;/p&gt;" style="verticalAlign=top;align=left;overflow=fill;fontSize=12;fontFamily=Helvetica;html=1;" vertex="1" parent="H_-ThdgvMd2uYaJ2s5YI-1">
          <mxGeometry x="270" y="100" width="270" height="130" as="geometry" />
        </mxCell>
        <mxCell id="n474g0mYbvAmzKs8n7oU-5" value="«ServiceSpecificationRole»&lt;br&gt;&lt;b&gt;NO : Notification Object&lt;/b&gt;" style="html=1;" vertex="1" parent="H_-ThdgvMd2uYaJ2s5YI-1">
          <mxGeometry x="330" y="160" width="150" height="50" as="geometry" />
        </mxCell>
        <mxCell id="n474g0mYbvAmzKs8n7oU-11" style="edgeStyle=orthogonalEdgeStyle;rounded=0;orthogonalLoop=1;jettySize=auto;html=1;exitX=0.5;exitY=1;exitDx=0;exitDy=0;endArrow=classic;endFill=1;dashed=1;" edge="1" parent="H_-ThdgvMd2uYaJ2s5YI-1" source="n474g0mYbvAmzKs8n7oU-12">
          <mxGeometry relative="1" as="geometry">
            <mxPoint x="405" y="430" as="targetPoint" />
          </mxGeometry>
        </mxCell>
        <mxCell id="n474g0mYbvAmzKs8n7oU-12" value="&lt;p style=&quot;margin: 0px ; margin-top: 4px ; text-align: center&quot;&gt;&lt;i&gt;&amp;lt;&amp;lt;ServiceSpecification&amp;gt;&amp;gt;&lt;/i&gt;&lt;br&gt;&lt;b&gt;Enterprise Exchange&lt;/b&gt;&lt;/p&gt;&lt;hr size=&quot;1&quot;&gt;&lt;p style=&quot;margin: 0px ; margin-left: 4px&quot;&gt;&lt;br&gt;&lt;/p&gt;" style="verticalAlign=top;align=left;overflow=fill;fontSize=12;fontFamily=Helvetica;html=1;" vertex="1" parent="H_-ThdgvMd2uYaJ2s5YI-1">
          <mxGeometry x="320" y="290" width="170" height="80" as="geometry" />
        </mxCell>
        <mxCell id="n474g0mYbvAmzKs8n7oU-13" value="«Capability»&lt;br&gt;&lt;b&gt;Email Message&lt;/b&gt;" style="html=1;" vertex="1" parent="H_-ThdgvMd2uYaJ2s5YI-1">
          <mxGeometry x="320" y="430" width="170" height="50" as="geometry" />
        </mxCell>
        <mxCell id="n474g0mYbvAmzKs8n7oU-16" value="&amp;lt;&amp;lt;Exhibitis&amp;gt;&amp;gt;" style="text;html=1;strokeColor=none;fillColor=none;align=center;verticalAlign=middle;whiteSpace=wrap;rounded=0;" vertex="1" parent="H_-ThdgvMd2uYaJ2s5YI-1">
          <mxGeometry x="420" y="390" width="70" height="20" as="geometry" />
        </mxCell>
      </root>
    </mxGraphModel>
  </diagram>
  <diagram id="kA5y3ScwM8rqPOcfmAnQ" name="DIV Diagrams">
    <mxGraphModel dx="2717" dy="1323" grid="1" gridSize="10" guides="1" tooltips="1" connect="1" arrows="1" fold="1" page="1" pageScale="1" pageWidth="850" pageHeight="1100" math="0" shadow="0">
      <root>
        <mxCell id="Ox95dz9BANwZEl6q_HYK-0" />
        <mxCell id="Ox95dz9BANwZEl6q_HYK-1" parent="Ox95dz9BANwZEl6q_HYK-0" />
      </root>
    </mxGraphModel>
  </diagram>
</mxfile>
